<svg width="40" height="30" viewBox="0 0 55 50" fill="none" xmlns="http://www.w3.org/2000/svg">
<g clip-path="url(#clip0)">
<path d="M37.8297 17.365C37.1003 16.9346 36.1522 16.9346 35.35 17.365L29.6612 20.6646L25.7957 22.8165L20.1069 26.116C19.3776 26.5464 18.4294 26.5464 17.6272 26.116L13.1053 23.5338C12.376 23.1034 11.8655 22.3143 11.8655 21.4536V16.3608C11.8655 15.5 12.3031 14.711 13.1053 14.2806L17.5542 11.77C18.2836 11.3397 19.2317 11.3397 20.034 11.77L24.4829 14.2806C25.2122 14.711 25.7228 15.5 25.7228 16.3608V19.6603L29.5882 17.4367V14.1371C29.5882 13.2764 29.1506 12.4873 28.3484 12.057L20.1069 7.32278C19.3776 6.89241 18.4294 6.89241 17.6272 7.32278L9.23986 12.057C8.4376 12.4873 8 13.2764 8 14.1371V23.6772C8 24.538 8.4376 25.327 9.23986 25.7574L17.6272 30.4916C18.3565 30.9219 19.3046 30.9219 20.1069 30.4916L25.7957 27.2637L29.6612 25.0401L35.35 21.8122C36.0793 21.3819 37.0274 21.3819 37.8297 21.8122L42.2786 24.3228C43.0079 24.7532 43.5185 25.5422 43.5185 26.403V31.4958C43.5185 32.3565 43.0809 33.1456 42.2786 33.576L37.8297 36.1582C37.1003 36.5886 36.1522 36.5886 35.35 36.1582L30.901 33.6477C30.1717 33.2173 29.6612 32.4283 29.6612 31.5675V28.2679L25.7957 30.4916V33.7911C25.7957 34.6519 26.2333 35.4409 27.0356 35.8713L35.4229 40.6055C36.1522 41.0359 37.1003 41.0359 37.9026 40.6055L46.2899 35.8713C47.0193 35.4409 47.5298 34.6519 47.5298 33.7911V24.2511C47.5298 23.3903 47.0922 22.6013 46.2899 22.1709L37.8297 17.365Z" fill="#8247E5"/>
</g>
<defs>
<clipPath id="clip0">
<rect width="154.545" height="34" fill="white" transform="translate(8 7)"/>
</clipPath>
</defs>
</svg>
